<?xml version="1.0" encoding="UTF-8"?>
<svg xmlns="http://www.w3.org/2000/svg" id="Layer_1" data-name="Layer 1" version="1.1" viewBox="0 0 197 96">
  <defs>
    <style>
      .cls-1, .cls-2 {
        fill: #000;
        stroke-width: 0px;
      }

      .cls-2 {
        fill-rule: evenodd;
      }
    </style>
  </defs>
  <g id="Logo---Wordmark-Copy-2">
    <path id="Allica" class="cls-2" d="M104.3,56.3c2.7,0,4.6-2,4.6-4.7s-2-4.7-4.6-4.7-4.6,2-4.6,4.7,2,4.7,4.6,4.7ZM110,43.1h3.4v17h-3.6l-.4-1.5c-1.5,1.3-3.5,2.1-5.5,2-5.1,0-8.9-3.9-8.9-9s3.8-9,8.9-9c2.1,0,4.1.7,5.6,2.1l.5-1.6ZM87.2,56.3c1.8,0,3.3-1.1,4-2.1l3.2,2.7c-2.9,4-8.6,4.9-12.6,2-4-2.9-4.9-8.6-2-12.6,2.9-4,8.6-4.9,12.6-2,.8.6,1.4,1.2,2,2l-3.2,2.6c-.9-1-2.3-2-4.1-2-2.5,0-4.3,2.1-4.3,4.7s1.9,4.7,4.4,4.7ZM76.3,38.1c0,1.5-1.3,2.8-2.8,2.8-1.5,0-2.8-1.3-2.8-2.8,0-1.5,1.3-2.8,2.8-2.8,1.5,0,2.8,1.2,2.8,2.8h0ZM71.2,60.2v-17h4.6v17h-4.6ZM63.4,60.2v-22.1h4.6v22.1h-4.6ZM55.5,60.2v-22.1h4.6v22.1h-4.6ZM40.2,51.8h5.8l-2.9-7.9-2.9,7.9ZM45.3,38.1l8.9,22.1h-5.2l-1.5-4.2h-8.8l-1.5,4.2h-5.1l8.7-22.1h4.5Z"></path>
  </g>
  <path id="Shield-2-Copy" class="cls-2" d="M11.7,60.7c6.2,0,11.3-5,11.3-11.3v-11.3H.4v11.3c0,6.2,5.1,11.3,11.3,11.3Z"></path>
  <path class="cls-1" d="M135,48.5c1.9,1,3.1,2.9,3.1,5.3,0,3.5-3.1,6.4-6.9,6.4h-9.4v-22h9.1c3.8,0,6.6,2.4,6.6,5.7,0,1.9-.9,3.7-2.5,4.7ZM130.7,55.8c1.6,0,2.6-1,2.6-2.5s-1-2.5-2.6-2.5h-4.2v4.9h4.2ZM132.9,44.5c0-1.4-1-2.3-2.5-2.3h-4v4.7h4c1.5,0,2.5-1,2.5-2.4h0Z"></path>
  <path class="cls-1" d="M158.2,43.1v17h-3.6l-.4-1.5c-1.5,1.3-3.5,2-5.5,2-5.1,0-8.9-3.9-8.9-9s3.8-8.9,8.9-8.9c2.1,0,4,.7,5.6,2.1l.5-1.6h3.4ZM153.7,51.6c0-2.7-1.9-4.6-4.6-4.6s-4.6,2-4.6,4.6,2,4.7,4.6,4.7,4.6-2,4.6-4.6h0Z"></path>
  <path class="cls-1" d="M177.4,49.8v10.3h-4.6v-9.6c0-1.3-.2-2.2-.7-2.9s-1.2-.9-2.2-.9-2.1.4-2.8,1.2-1,1.9-1,3.3v9h-4.6v-17h3.2l.4,1.1.5,1.1c.7-.8,1.5-1.4,2.4-1.8,1-.5,2.1-.7,3.2-.7,1.9,0,3.5.7,4.6,1.9,1.1,1.2,1.7,3,1.7,5.2Z"></path>
  <path class="cls-1" d="M190.7,60.1l-2.7-4.1-2.7-4.1v8.1h-4.6v-23.5h4.6v14.1l2.5-3.8,2.5-3.8h5.3l-2.9,4-2.9,4,3.2,4.4,3.2,4.4h-5.6,0Z"></path>
</svg>
