<?xml version="1.0" encoding="UTF-8"?>
<svg xmlns="http://www.w3.org/2000/svg" width="142" height="96" viewBox="0 0 142 96" fill="none">
  <path fill-rule="evenodd" clip-rule="evenodd" d="M93.1151 63.3575C92.8651 63.3575 92.6783 63.1692 92.7401 62.9809V50.9998C92.7401 48.7406 91.3033 46.6712 89.1781 46.0431C85.9279 45.0401 82.741 47.5492 82.741 50.7482V62.9809C82.7431 63.0308 82.7348 63.0806 82.7168 63.1272C82.6987 63.1737 82.6712 63.216 82.6359 63.2514C82.6007 63.2867 82.5585 63.3144 82.512 63.3327C82.4656 63.351 82.4158 63.3594 82.3659 63.3575H76.7406C76.6907 63.3594 76.6409 63.351 76.5945 63.3327C76.548 63.3144 76.5058 63.2867 76.4706 63.2514C76.4354 63.216 76.4078 63.1737 76.3898 63.1272C76.3717 63.0806 76.3634 63.0308 76.3656 62.9809V25.9696C76.3634 25.9197 76.3717 25.8699 76.3898 25.8234C76.4078 25.7768 76.4354 25.7345 76.4706 25.6992C76.5058 25.6638 76.548 25.6361 76.5945 25.6178C76.6409 25.5996 76.6907 25.5911 76.7406 25.593H82.3659C82.4158 25.5911 82.4656 25.5996 82.512 25.6178C82.5585 25.6361 82.6007 25.6638 82.6359 25.6992C82.6712 25.7345 82.6987 25.7768 82.7168 25.8234C82.7348 25.8699 82.7431 25.9197 82.741 25.9696V41.4645C84.3661 39.8334 86.0544 39.2686 87.7398 39.2686C90.7822 39.2649 93.7039 40.459 95.8728 42.5926C97.9979 44.8518 99.1863 47.7375 99.1863 50.7482V62.9809C99.1884 63.0308 99.1802 63.0806 99.1621 63.1272C99.144 63.1737 99.1165 63.216 99.0812 63.2514C99.046 63.2867 99.0038 63.3144 98.9574 63.3327C98.9109 63.351 98.8612 63.3594 98.8113 63.3575H93.1151ZM105.561 35.9115C105.51 35.9136 105.459 35.9051 105.411 35.8865C105.364 35.8679 105.321 35.8395 105.284 35.8032C105.248 35.767 105.22 35.7236 105.202 35.6759C105.183 35.6281 105.175 35.5771 105.177 35.5259V29.7379C105.175 29.6868 105.183 29.6357 105.202 29.588C105.22 29.5403 105.248 29.4969 105.284 29.4606C105.321 29.4244 105.364 29.396 105.411 29.3774C105.459 29.3587 105.51 29.3502 105.561 29.3524H111.586C111.637 29.3502 111.688 29.3587 111.736 29.3774C111.784 29.396 111.827 29.4243 111.863 29.4606C111.899 29.4968 111.928 29.5401 111.946 29.5879C111.965 29.6356 111.973 29.6867 111.971 29.7379V35.5259C111.973 35.5771 111.965 35.6282 111.946 35.676C111.928 35.7237 111.899 35.7671 111.863 35.8033C111.827 35.8395 111.784 35.8679 111.736 35.8865C111.688 35.9051 111.637 35.9136 111.586 35.9115H105.561ZM12.0188 42.3334C12.0189 41.9341 11.9395 41.5388 11.7854 41.1705C11.6313 40.8021 11.4055 40.4681 11.1212 40.1878C10.8368 39.9075 10.4996 39.6865 10.1291 39.5378C9.75855 39.389 9.36215 39.3153 8.96292 39.3211C8.16775 39.3432 7.41296 39.6763 6.86071 40.2488C6.30845 40.8213 6.0028 41.5876 6.00942 42.3831V44.7371C6.00942 44.8969 5.94594 45.0501 5.83296 45.1631C5.71998 45.2761 5.56675 45.3396 5.40697 45.3396H0.602448C0.442669 45.3396 0.289434 45.2761 0.176453 45.1631C0.063472 45.0501 0 44.8969 0 44.7371V42.4192C0 37.4294 4.01833 33.3223 9.00961 33.3192C10.1937 33.3186 11.3664 33.5514 12.4606 34.0041C13.5547 34.4568 14.549 35.1207 15.3865 35.9578C16.224 36.7949 16.8884 37.7888 17.3417 38.8828C17.7949 39.9767 18.0282 41.1492 18.0282 42.3334V44.7432C18.0282 44.9029 17.9648 45.0562 17.8518 45.1692C17.7388 45.2821 17.5856 45.3456 17.4258 45.3456H12.6198C12.46 45.3456 12.3068 45.2821 12.1938 45.1692C12.0808 45.0562 12.0173 44.9029 12.0173 44.7432L12.0188 42.3334ZM24.7904 33.3192H29.2937C29.7096 33.3192 30.0468 33.6564 30.0468 34.0723V44.585C30.0468 45.0009 29.7096 45.3381 29.2937 45.3381H24.7904C24.3745 45.3381 24.0373 45.0009 24.0373 44.585V34.0723C24.0373 33.6564 24.3745 33.3192 24.7904 33.3192ZM24.2027 51.5044C24.3143 51.4029 24.4599 51.3469 24.6107 51.3475H29.4257C29.5078 51.3474 29.5891 51.364 29.6646 51.3964C29.74 51.4289 29.808 51.4764 29.8645 51.536C29.9209 51.5957 29.9645 51.6663 29.9927 51.7434C30.0208 51.8205 30.0329 51.9026 30.0282 51.9846C29.8666 55.0587 28.5316 57.9537 26.2985 60.0725C24.0653 62.1914 21.1043 63.3726 18.0259 63.3726C14.9475 63.3726 11.9865 62.1914 9.75335 60.0725C7.52021 57.9537 6.18522 55.0587 6.02364 51.9846C6.01892 51.9026 6.03101 51.8205 6.05916 51.7434C6.08732 51.6663 6.13095 51.5957 6.18737 51.536C6.24379 51.4764 6.31181 51.4289 6.38725 51.3964C6.4627 51.364 6.54398 51.3474 6.62609 51.3475H11.4351C11.5859 51.3469 11.7315 51.4029 11.843 51.5044C11.9546 51.6059 12.024 51.7455 12.0376 51.8957C12.1757 53.3876 12.866 54.7741 13.9732 55.7835C15.0804 56.7929 16.5246 57.3524 18.0229 57.3524C19.5211 57.3524 20.9654 56.7929 22.0726 55.7835C23.1798 54.7741 23.8701 53.3876 24.0082 51.8957C24.0218 51.7455 24.0912 51.6059 24.2027 51.5044ZM105.411 63.3472C105.459 63.366 105.51 63.3747 105.561 63.3728H111.586C111.637 63.3747 111.688 63.366 111.736 63.3472C111.784 63.3284 111.827 63.2999 111.863 63.2636C111.899 63.2272 111.928 63.1838 111.946 63.136C111.965 63.0882 111.973 63.037 111.971 62.9857V39.6409C111.973 39.5897 111.965 39.5386 111.946 39.4909C111.928 39.4431 111.899 39.3997 111.863 39.3635C111.827 39.3273 111.784 39.299 111.736 39.2803C111.688 39.2617 111.637 39.2532 111.586 39.2553H105.561C105.51 39.2532 105.459 39.2617 105.411 39.2803C105.364 39.299 105.321 39.3273 105.284 39.3636C105.248 39.3998 105.22 39.4432 105.202 39.491C105.183 39.5387 105.175 39.5898 105.177 39.6409V62.9857C105.175 63.0369 105.183 63.088 105.202 63.1359C105.22 63.1837 105.248 63.2271 105.284 63.2635C105.32 63.2999 105.364 63.3284 105.411 63.3472ZM51.64 59.9478C53.8787 62.1589 56.9036 63.3908 60.0501 63.3727C61.8437 63.3998 63.6192 63.0105 65.2369 62.2354C66.8546 61.4603 68.2704 60.3204 69.373 58.9056L69.7992 58.4763L70.2872 57.8648C70.32 57.825 70.3444 57.779 70.3591 57.7295C70.3737 57.6801 70.3783 57.6282 70.3726 57.5769C70.3668 57.5256 70.3508 57.4761 70.3256 57.4311C70.3003 57.3861 70.2663 57.3467 70.2255 57.3151L65.7779 54.1342C65.6925 54.0825 65.5925 54.0605 65.4933 54.0717C65.3941 54.0828 65.3014 54.1265 65.2297 54.1959L64.8019 54.8074C63.5835 56.5199 61.8771 57.4988 60.1104 57.4988C56.9415 57.4988 54.2606 54.6899 54.2606 51.387C54.2606 48.0841 56.9475 45.2691 60.1104 45.2691C61.8771 45.2691 63.6452 46.2436 64.8019 47.9003L65.2899 48.5118C65.3214 48.5526 65.3607 48.5867 65.4056 48.6119C65.4505 48.6371 65.5 48.653 65.5512 48.6587C65.6024 48.6643 65.6542 48.6595 65.7035 48.6446C65.7528 48.6298 65.7986 48.6051 65.8382 48.5721L70.1035 45.3927C70.2872 45.2691 70.2872 45.0252 70.2255 44.8414L69.861 44.2299C69.4695 43.7301 69.0416 43.26 68.5808 42.8232C66.4481 40.5595 63.4013 39.3365 60.1104 39.3365C58.5258 39.3205 56.9539 39.6216 55.4874 40.222C54.0208 40.8224 52.6891 41.7101 51.5707 42.8327C50.4522 43.9554 49.5696 45.2904 48.9747 46.7592C48.3798 48.228 48.0846 49.8009 48.1066 51.3855C48.1081 54.5642 49.3549 57.6158 51.5797 59.886L51.64 59.9478ZM135.789 51.2827C135.789 54.5479 133.088 57.3825 129.835 57.3825C126.582 57.3825 123.881 54.5479 123.881 51.2827C123.881 47.9557 126.582 45.1829 129.835 45.1829C133.088 45.1829 135.789 47.9557 135.789 51.2827ZM142 50.9227C141.939 47.7386 140.666 44.6977 138.44 42.4207C136.171 40.1702 133.104 38.9077 129.909 38.9084C128.067 38.9084 126.041 39.1554 124.199 40.9417L123.954 41.1887V39.7714C123.956 39.7224 123.948 39.6734 123.931 39.6276C123.913 39.5818 123.886 39.5402 123.851 39.5053C123.817 39.4705 123.775 39.4432 123.73 39.4252C123.684 39.4072 123.635 39.399 123.586 39.4009H118.315C118.266 39.399 118.217 39.4073 118.171 39.4252C118.125 39.4432 118.084 39.4704 118.049 39.5052C118.014 39.5401 117.987 39.5817 117.97 39.6275C117.952 39.6733 117.944 39.7223 117.946 39.7714V75.6306C117.944 75.6796 117.952 75.7286 117.97 75.7743C117.987 75.82 118.014 75.8616 118.049 75.8963C118.084 75.931 118.125 75.9581 118.171 75.9759C118.217 75.9937 118.266 76.0017 118.315 75.9996H123.586C123.635 76.0018 123.684 75.9937 123.73 75.9759C123.775 75.9581 123.817 75.9309 123.851 75.8962C123.886 75.8615 123.913 75.8199 123.931 75.7742C123.948 75.7285 123.956 75.6796 123.954 75.6306V60.5348L124.198 60.72C125.856 62.2608 127.758 63.0003 129.907 63.0003C131.492 63.0124 133.063 62.708 134.528 62.1049C135.993 61.5017 137.323 60.6121 138.44 59.488C140.711 57.146 142 54.1277 142 50.9227Z" fill="black"></path>
</svg>
