<?xml version="1.0" encoding="UTF-8"?>
<svg xmlns="http://www.w3.org/2000/svg" width="197" height="96" viewBox="0 0 197 96" fill="none">
  <path d="M39.7602 38.7708C32.6035 38.7708 27.0117 44.1738 27.0117 51.4068C27.0117 58.6397 32.4623 63.9964 39.7602 63.9964C47.058 63.9964 52.6034 58.5473 52.6034 51.3605C52.6034 44.1738 47.1528 38.7708 39.7602 38.7708V38.7708ZM39.8084 58.7838C35.733 58.7838 32.7466 55.6359 32.7466 51.4085C32.7466 47.1811 35.6847 43.987 39.7602 43.987C43.8356 43.987 46.8685 47.1811 46.8685 51.4085C46.8685 55.6359 43.8821 58.7838 39.8066 58.7838H39.8084ZM54.1682 44.268H57.7232V63.5287H63.4099V39.2403H54.1682V44.2663V44.268ZM12.702 43.987C15.6884 43.987 18.0578 45.8189 18.9573 48.5434H24.9766C23.8858 42.719 19.0521 38.7726 12.7503 38.7726C5.59189 38.7708 0 44.1738 0 51.4085C0 58.6433 5.45061 63.9982 12.7485 63.9982C18.9091 63.9982 23.8375 60.0518 24.9283 54.1794H18.9573C18.1043 56.904 15.7349 58.7838 12.7485 58.7838C8.62477 58.7838 5.73495 55.6359 5.73495 51.4085C5.73495 47.1811 8.57828 43.987 12.702 43.987V43.987ZM162.218 49.061L158.048 48.451C156.058 48.17 154.636 47.5119 154.636 45.9611C154.636 44.2698 156.485 43.4251 158.996 43.4251C161.744 43.4251 163.499 44.5988 163.878 46.5249H169.375C168.758 41.6395 164.967 38.7744 159.139 38.7744C153.311 38.7744 149.139 41.828 149.139 46.1496C149.139 50.4713 151.746 52.6801 157.006 53.4306L161.176 54.0407C163.214 54.3216 164.352 55.122 164.352 56.6247C164.352 58.5508 162.361 59.3493 159.613 59.3493C156.247 59.3493 154.352 57.987 154.067 55.9205H148.476C148.998 60.6654 152.741 64 159.565 64C165.773 64 169.895 61.1811 169.895 56.342C169.895 52.0203 166.909 49.7652 162.218 49.061V49.061ZM60.5648 29.2348C58.4796 29.2348 56.9149 30.7376 56.9149 32.8041C56.9149 34.8707 58.4779 36.3735 60.5648 36.3735C62.6517 36.3735 64.2146 34.8707 64.2146 32.8041C64.2146 30.7376 62.6499 29.2348 60.5648 29.2348V29.2348ZM144.019 47.5564C144.019 42.2957 140.797 38.7726 133.973 38.7726C127.528 38.7726 123.926 42.0147 123.215 46.9944H128.855C129.139 45.0683 130.656 43.4713 133.878 43.4713C136.77 43.4713 138.191 44.7393 138.191 46.2901C138.191 48.3105 135.584 48.8262 132.362 49.1552C128.002 49.6247 122.599 51.1275 122.599 56.7652C122.599 61.1349 125.87 63.952 131.083 63.952C135.158 63.952 137.717 62.2607 138.998 59.5823C139.187 61.9779 140.988 63.5287 143.501 63.5287H146.818V58.5028H144.021V47.5564H144.019ZM138.427 53.6636C138.427 56.9057 135.584 59.3013 132.124 59.3013C129.99 59.3013 128.19 58.4085 128.19 56.5305C128.19 54.1349 131.081 53.4769 133.735 53.1959C136.294 52.9611 137.716 52.3974 138.427 51.3161V53.6654V53.6636ZM108.24 38.7726C105.064 38.7726 102.41 40.0887 100.514 42.2957V29H94.8278V63.5287H100.42V60.3346C102.315 62.6359 105.017 63.9982 108.24 63.9982C115.064 63.9982 120.23 58.6433 120.23 51.4085C120.23 44.1738 114.969 38.7726 108.24 38.7726V38.7726ZM107.387 58.7856C103.311 58.7856 100.325 55.6377 100.325 51.4103C100.325 47.1829 103.358 43.9888 107.433 43.9888C111.509 43.9888 114.447 47.1367 114.447 51.4103C114.447 55.6839 111.46 58.7856 107.385 58.7856H107.387ZM81.2263 38.7708C77.53 38.7708 75.1122 40.2736 73.6906 42.3882V39.2403H68.0504V63.5287H73.7371V50.3272C73.7371 46.6156 76.1065 43.9853 79.6133 43.9853C82.884 43.9853 84.9209 46.2866 84.9209 49.623V63.5287H90.6075V49.1997C90.6075 43.0925 87.4316 38.7708 81.2245 38.7708H81.2263ZM197 50.6082C197 43.6562 191.882 38.7708 185.01 38.7708C177.712 38.7708 172.356 44.22 172.356 51.4068C172.356 58.9705 178.091 63.9964 185.104 63.9964C191.029 63.9964 195.673 60.5196 196.857 55.5879H190.932C190.079 57.7487 187.994 58.9705 185.197 58.9705C181.548 58.9705 178.799 56.7154 178.184 52.7691H196.998V50.6082H197ZM178.518 48.7284C179.42 45.3458 181.979 43.7025 184.917 43.7025C188.139 43.7025 190.603 45.5343 191.172 48.7284H178.518V48.7284Z" fill="black"></path>
</svg>
