<?xml version="1.0" encoding="UTF-8"?>
<svg xmlns="http://www.w3.org/2000/svg" width="138" height="96" viewBox="0 0 138 96" fill="none">
  <path fill-rule="evenodd" clip-rule="evenodd" d="M14.8022 36.0627C15.1553 35.7097 15.42 35.4449 15.067 35.4449C15.0028 35.4449 14.9024 35.4516 14.7732 35.4602C13.6583 35.5343 10.3951 35.751 9.68333 33.062C8.88901 30.0613 13.2136 21.1473 13.3901 20.7943C13.4784 20.4413 13.2136 20 12.684 20C12.3791 20 12.1163 20.2528 11.9539 20.4091C11.8813 20.479 11.8287 20.5295 11.8015 20.5295C10.6927 21.9266 9.46688 23.4073 8.24027 24.8889C4.58514 29.304 0.922825 33.7277 0.328095 35.9745C-1.70181 43.4763 6.15303 46.5653 11.0954 47.0948C11.1837 47.0948 11.1837 47.0066 11.1837 47.0066V44.3589C11.2719 40.7404 12.5958 38.0044 14.8022 36.0627ZM129.011 24.1762L129.011 24.1761C127.979 22.9343 126.955 21.7024 126.005 20.5295C125.992 20.5163 125.975 20.495 125.953 20.4685L125.953 20.4684C125.831 20.3184 125.573 20 125.123 20C124.681 20 124.328 20.4413 124.505 20.7943C124.681 21.1473 129.006 30.1495 128.212 33.062C127.5 35.751 124.237 35.5343 123.122 35.4602C122.993 35.4516 122.892 35.4449 122.828 35.4449C122.475 35.4449 122.74 35.7097 123.093 36.0628C125.299 38.0044 126.711 40.7404 126.711 44.2706V46.9183C126.711 46.9624 126.711 46.9845 126.722 46.9955C126.733 47.0066 126.755 47.0066 126.799 47.0066C131.83 46.5653 139.508 43.4763 137.479 35.9745C136.852 33.6068 132.873 28.8213 129.011 24.1762ZM117.974 53.3613C117.974 55.9207 114.532 57.3329 112.326 57.3329C109.943 57.3329 106.589 55.9207 106.589 53.3613V44.3591C106.589 41.7997 109.943 40.6523 112.326 40.6523C114.532 40.6523 117.974 41.8879 117.974 44.3591V53.3613ZM112.326 35.0039C107.031 35.0922 100.853 38.0929 100.853 44.2709V53.7143C100.853 59.9807 107.031 62.9814 112.326 62.9814C117.533 62.8931 123.711 59.9807 123.711 53.7143V44.3591C123.711 38.1811 117.533 35.0922 112.326 35.0039ZM72.4347 57.3328C74.6411 57.3328 78.0831 55.9207 78.0831 53.3613V44.3591C78.0831 41.8879 74.6411 40.6523 72.4347 40.6523C70.0519 40.6523 66.6979 41.7996 66.6979 44.3591V53.3613C66.6979 55.9207 70.0519 57.3328 72.4347 57.3328ZM60.8732 44.2708C60.8732 38.0928 67.0513 35.0921 72.3463 35.0039C77.5538 35.0921 83.7315 38.1811 83.7315 44.3591V53.7143C83.7315 59.9807 77.5538 62.893 72.3463 62.9814C67.0513 62.9814 60.8732 59.9807 60.8732 53.7143V44.2708ZM48.6045 35.5334C53.1937 35.5334 56.2827 35.9747 60.5193 37.1221C60.6072 37.1221 60.6956 37.2986 60.6956 37.4751C59.1954 38.6224 58.4891 40.2993 58.1362 42.0644C55.8414 41.4466 53.9 41.1819 51.5169 41.0054V62.8046C51.5169 62.893 51.4285 62.893 51.3406 62.893H45.8685C45.7801 62.893 45.6922 62.893 45.6922 62.8046V41.0054C43.2207 41.1819 41.1026 41.5349 38.8079 42.0644C38.5432 40.2993 37.9254 38.7107 36.5133 37.4751C36.425 37.3868 36.5133 37.2103 36.6898 37.1221C40.9259 35.9747 44.1033 35.5334 48.6045 35.5334ZM101.029 35.2684C100.588 35.1802 99.4401 35.0037 98.3813 35.0919C93.1738 35.2684 87.2607 38.3574 87.2607 44.3589V44.8884V53.8024V62.9812C87.2607 63.0695 87.3491 63.0695 87.4374 63.0695H92.9091C92.9975 63.0695 93.0858 63.0695 93.0858 62.9812V62.4516V44.3589C93.0858 42.329 95.5569 41.1817 97.5866 40.7404C98.2046 38.7987 99.3518 37.2984 101.117 35.8862C101.382 35.6215 101.294 35.2684 101.029 35.2684ZM30.5939 46.0258C30.6007 46.0066 30.6007 45.985 30.6007 45.9475V44.3589C30.6007 41.7995 27.6882 40.5638 25.3936 40.5638C23.0106 40.5638 19.9216 41.7995 19.9216 44.3589V46.2123H30.3359C30.4242 46.2123 30.5125 46.2123 30.5125 46.124C30.5632 46.0733 30.5848 46.0517 30.5939 46.0258ZM14.0967 44.2706C14.0967 38.0044 20.0099 34.9154 25.3936 34.8271C30.689 34.9154 36.2491 38.0044 36.2491 44.3589V49.566C36.2491 50.3604 35.6314 50.9782 34.837 50.9782H19.9216V53.8024C19.9216 56.3618 23.0106 57.8622 25.3936 57.8622C27.1587 57.8622 29.7181 56.9796 30.689 55.3027C30.7397 55.252 30.7613 55.2304 30.7872 55.2212C30.8064 55.2145 30.828 55.2145 30.8655 55.2145C32.5051 56.0734 33.5231 56.6559 35.0195 57.5122C35.2145 57.6238 35.4176 57.74 35.6314 57.8622C35.7196 57.9504 35.8079 58.1269 35.7196 58.2152C33.6014 61.6571 29.2769 63.2459 25.3936 63.2459C20.0099 63.1576 14.0967 60.1569 14.0967 53.8024V44.2706Z" fill="black"></path>
</svg>
