<?xml version="1.0" encoding="UTF-8"?>
<svg xmlns="http://www.w3.org/2000/svg" width="118" height="96" viewBox="0 0 118 96" fill="none">
  <path fill-rule="evenodd" clip-rule="evenodd" d="M0 74.79L16.61 82.72V64.76H20.3C25.4399 64.76 30.3693 62.7182 34.0037 59.0837C37.6382 55.4493 39.68 50.5199 39.68 45.38C39.68 40.2401 37.6382 35.3107 34.0037 31.6763C30.3693 28.0418 25.4399 26 20.3 26H0V74.79ZM22.252 43.4285C21.9607 43.1373 21.6111 42.9178 21.2306 42.7816C21.1883 42.7665 21.1457 42.7524 21.1027 42.7393C20.8448 42.6609 20.5745 42.62 20.3 42.62H16.61V48.14H16.6104V48.1401H20.3004C21.0324 48.1401 21.7344 47.8493 22.252 47.3317C22.7696 46.8141 23.0603 46.1121 23.0603 45.3801C23.0603 44.6481 22.7696 43.9461 22.252 43.4285ZM5.53027 70.64L11.0703 73.28V59.22H20.3003C23.9709 59.22 27.4911 57.7619 30.0866 55.1664C32.6821 52.5709 34.1403 49.0506 34.1403 45.38C34.1403 41.7094 32.6821 38.1892 30.0866 35.5937C27.4911 32.9982 23.9709 31.54 20.3003 31.54H5.53027V70.64ZM20.3003 53.68H11.0703V37.08H20.3003C22.5016 37.08 24.6127 37.9545 26.1693 39.511C27.7258 41.0676 28.6003 43.1787 28.6003 45.38C28.6003 47.5813 27.7258 49.6925 26.1693 51.249C24.6127 52.8056 22.5016 53.68 20.3003 53.68ZM96.2402 42.9098H98.9902V51.2198H96.2402V42.9098ZM97.6102 42.1898C97.3288 42.1761 97.0576 42.0802 96.8302 41.9138C96.6028 41.7475 96.4291 41.5181 96.3308 41.2541C96.2325 40.9901 96.2137 40.703 96.277 40.4284C96.3402 40.1538 96.4825 39.9039 96.6864 39.7094C96.8903 39.515 97.1468 39.3846 97.424 39.3345C97.7013 39.2844 97.9872 39.3167 98.2463 39.4274C98.5053 39.5382 98.7262 39.7225 98.8816 39.9575C99.0369 40.1926 99.1199 40.4681 99.1202 40.7498C99.1219 40.9454 99.0834 41.1392 99.0072 41.3193C98.931 41.4994 98.8187 41.662 98.6772 41.7969C98.5356 41.9319 98.3679 42.0364 98.1844 42.104C98.0009 42.1715 97.8055 42.2008 97.6102 42.1898ZM50.5099 41.8701H49.0799V44.9401H50.5099C51.6899 44.9401 52.9899 44.7801 52.9899 43.3801C52.9899 41.9801 51.5499 41.8701 50.5099 41.8701ZM50.8499 47.2401H49.0799V51.2401H46.1699V39.5801H50.2599C51.9099 39.5801 53.2599 39.5801 54.2599 40.3901C54.7378 40.7285 55.1253 41.179 55.3885 41.702C55.6518 42.2251 55.7828 42.8047 55.7699 43.3901C55.7699 46.2401 53.4399 47.2701 50.7699 47.2701L50.8499 47.2401ZM61.7899 47.66H60.5199C59.8199 47.66 58.9899 47.84 58.9899 48.66C58.9899 49.23 59.4199 49.57 60.0599 49.57C60.5131 49.594 60.9589 49.4477 61.3099 49.16C61.4732 49.0075 61.6008 48.821 61.6838 48.6135C61.7668 48.4061 61.803 48.183 61.7899 47.96V47.66ZM61.9899 51.22L61.9299 50.38C61.5848 50.7141 61.1757 50.975 60.7272 51.1468C60.2786 51.3187 59.7999 51.398 59.3199 51.38C58.9523 51.4224 58.58 51.3864 58.2273 51.2745C57.8747 51.1625 57.5497 50.9772 57.2739 50.7306C56.998 50.4841 56.7775 50.1819 56.6269 49.8439C56.4762 49.506 56.3989 49.14 56.3999 48.77C56.3887 48.4543 56.4424 48.1397 56.5577 47.8455C56.6729 47.5514 56.8472 47.2841 57.0699 47.06C57.5054 46.668 58.0169 46.3698 58.5726 46.184C59.1282 45.9982 59.7162 45.9288 60.2999 45.98H61.7899V45.75C61.7899 44.88 61.1199 44.61 60.2799 44.61C59.4225 44.6491 58.6027 44.9728 57.9499 45.53L56.7899 43.96C57.2755 43.4988 57.8489 43.1399 58.4759 42.9046C59.1029 42.6693 59.7708 42.5623 60.4399 42.59C60.9817 42.544 61.5271 42.609 62.0429 42.7809C62.5587 42.9529 63.0341 43.2282 63.4399 43.59C64.3499 44.5 64.4399 45.59 64.4399 47.06V51.25L61.9899 51.22ZM67.1499 54.6501C69.5999 54.6501 70.5099 52.9301 71.0299 51.5901L74.5199 42.9102H71.7299L69.7899 48.0402L67.7899 42.9102H64.9199L68.4499 51.1002C68.1099 51.9402 67.8299 52.4301 66.9099 52.4301C66.6065 52.4205 66.3077 52.3526 66.0299 52.2302L65.2299 54.1002C65.7883 54.4974 66.4659 54.6915 67.1499 54.6501ZM80.05 41.8701H78.6299V44.9401H80.05C81.23 44.9401 82.5399 44.7801 82.5399 43.3801C82.5399 41.9801 81.1 41.8701 80.05 41.8701ZM80.39 47.2401H78.6299V51.2401H75.71V39.5801H79.7899C81.4399 39.5801 82.7899 39.5801 83.8399 40.3901C84.3159 40.7303 84.702 41.1812 84.9651 41.7038C85.2281 42.2264 85.3602 42.8051 85.3499 43.3901C85.3499 46.2401 83.0199 47.2701 80.3499 47.2701L80.39 47.2401ZM88.6997 47.0299C88.6997 45.8299 89.2997 44.7499 90.6197 44.7499C91.8997 44.7499 92.5397 45.7799 92.5397 47.0299C92.5397 48.2799 91.9097 49.33 90.6197 49.33C89.3297 49.33 88.6997 48.2299 88.6997 47.0299ZM88.2197 50.6106C88.9167 51.1316 89.751 51.4373 90.6197 51.49C91.2307 51.5407 91.8456 51.4622 92.4244 51.2596C93.0031 51.0571 93.5328 50.735 93.9789 50.3144C94.425 49.8937 94.7776 49.3839 95.0138 48.818C95.25 48.2522 95.3644 47.6429 95.3497 47.0299C95.3481 46.1597 95.0919 45.3089 94.6128 44.5825C94.1336 43.856 93.4524 43.2856 92.653 42.9415C91.8537 42.5974 90.9711 42.4947 90.1141 42.6461C89.2571 42.7974 88.4631 43.1962 87.8299 43.7932C87.1968 44.3902 86.7521 45.1594 86.5507 46.0061C86.3494 46.8527 86.4001 47.7398 86.6966 48.5579C86.9932 49.3761 87.5226 50.0896 88.2197 50.6106ZM105.79 46.5002V51.2202H108.53V46.0202C108.582 45.5635 108.541 45.101 108.409 44.6608C108.276 44.2207 108.055 43.8121 107.76 43.4602C107.467 43.1643 107.116 42.9338 106.728 42.7838C106.34 42.6338 105.925 42.5678 105.51 42.5902C104.997 42.5925 104.491 42.7013 104.023 42.9096C103.554 43.1178 103.135 43.4211 102.79 43.8002V42.9102H100.18V51.2202H102.92V47.1202C102.824 46.4808 102.978 45.8292 103.35 45.3002C103.653 45.017 104.055 44.8628 104.47 44.8702C104.771 44.8571 105.069 44.9412 105.32 45.1102C105.79 45.4002 105.79 45.9302 105.79 46.5002ZM114.49 51.47C112.04 51.47 110.94 50.47 110.94 48.26V45.07H109.19V42.91H110.94V41.84L113.69 40.29V42.91H116.55V45.07H113.69V47.39C113.69 48.3 113.69 49.2101 115.14 49.2101C115.541 49.1952 115.936 49.1141 116.31 48.97L117.03 50.91C116.245 51.308 115.371 51.5007 114.49 51.47Z" fill="black"></path>
</svg>
