<?xml version="1.0" encoding="UTF-8"?>
<svg xmlns="http://www.w3.org/2000/svg" width="88" height="96" viewBox="0 0 88 96" fill="none">
  <path fill-rule="evenodd" clip-rule="evenodd" d="M28.9478 32.1882C28.9478 33.0165 28.7021 33.8263 28.2419 34.515C27.7817 35.2037 27.1276 35.7405 26.3623 36.0575C25.5971 36.3745 24.755 36.4575 23.9425 36.2959C23.1301 36.1343 22.3838 35.7354 21.7981 35.1497C21.2124 34.5639 20.8135 33.8177 20.6519 33.0052C20.4903 32.1928 20.5732 31.3507 20.8902 30.5854C21.2072 29.8201 21.744 29.166 22.4328 28.7058C23.1215 28.2456 23.9313 28 24.7596 28C25.8704 28 26.9357 28.4413 27.7211 29.2267C28.5065 30.0121 28.9478 31.0774 28.9478 32.1882ZM17.7524 37.9786V44.2036H10.5931V54.528C10.5931 56.8218 11.6348 57.7258 13.98 57.7258H17.7781V63.6799H13.4965C6.74826 63.6799 3.69998 60.6293 3.69998 54.8691V44.2036H0V37.9786C0.485057 37.9767 0.964995 37.8793 1.41237 37.6918C1.85974 37.5044 2.26577 37.2306 2.60723 36.8861C2.9487 36.5416 3.21891 36.1331 3.4024 35.6841C3.5859 35.2351 3.67908 34.7543 3.67662 34.2692V31.3658H10.5697V37.9786H17.7524ZM21.38 37.9785H28.2638V63.6728H21.38V37.9785ZM51.9284 61.7858C50.1508 63.1873 47.3851 64.0002 44.5261 64.0002C42.838 63.994 41.1678 63.655 39.611 63.0023C38.0542 62.3497 36.6415 61.3963 35.4537 60.1969C34.2659 58.9974 33.3265 57.5754 32.6892 56.0122C32.0519 54.4491 31.7292 52.7756 31.7396 51.0876C31.7396 43.7624 37.605 38.0279 44.5261 38.0279C47.3851 38.0279 50.1508 38.9202 51.9284 40.2937V29.7637H58.7771V63.6638H51.9284V61.7858ZM52.0241 51.0876C52.0214 50.1863 51.8405 49.2944 51.4919 48.4632C51.1433 47.632 50.6339 46.8779 49.9929 46.2443C49.3519 45.6107 48.5919 45.11 47.7568 44.771C46.9216 44.4321 46.0277 44.2616 45.1264 44.2693C41.3773 44.2693 38.4692 47.3292 38.4692 51.0876C38.4692 54.8927 41.3773 57.9059 45.1264 57.9059C49.0693 57.8989 52.0241 54.8927 52.0241 51.0876ZM62.4512 50.8725C62.4512 58.1814 67.4826 63.708 75.2983 63.708C80.7222 63.708 84.5039 61.4586 86.8678 57.8474L81.9064 54.7804C80.5376 56.7635 78.3816 58.0506 75.4361 58.0506C72.0048 58.0506 69.6853 56.0254 68.9682 52.9117H87.6316C87.6316 52.863 87.6394 52.7217 87.6505 52.5221C87.6772 52.0417 87.7227 51.2237 87.7227 50.5455C87.7227 43.3791 83.065 37.9927 75.3427 37.9927C67.6928 37.9927 62.4512 43.7529 62.4512 50.8725ZM81.0538 47.9457H69.1994C70.0567 45.159 72.2127 43.4726 75.3053 43.4726C77.9705 43.4726 80.3367 44.9722 81.0538 47.9457Z" fill="black"></path>
</svg>
