<?xml version="1.0" encoding="UTF-8"?>
<svg xmlns="http://www.w3.org/2000/svg" id="Layer_1" data-name="Layer 1" viewBox="0 0 197 96">
  <defs>
    <style>
      .cls-1 {
        fill: #000;
        stroke-width: 0px;
      }
    </style>
  </defs>
  <g id="TrueLayer_Logo_-_Original" data-name="TrueLayer Logo - Original">
    <g id="Original_Horizontal" data-name="Original Horizontal">
      <path class="cls-1" d="M58.25,39.3h-11.65c-.48,0-.88.39-.89.88v.58c0,.48.39.88.89.88h4.04c.27,0,.49.23.49.5v13.56c0,.53.44.97.97.97h.63c.54,0,.98-.44.98-.98h0v-13.56c0-.28.22-.5.5-.5h4.04c.48,0,.88-.39.88-.88v-.58c0-.48-.39-.87-.88-.87Z"></path>
      <path class="cls-1" d="M95.15,40.3c0-.54-.44-.99-.99-.99h-.64c-.54,0-.99.44-.99.99v9.79c0,2.46-1.61,4.36-4.17,4.36s-4.12-1.93-4.12-4.41v-9.74c0-.54-.44-.99-.99-.99h-.63c-.54,0-.99.44-.99.99v9.91c.02,3.76,2.84,6.72,6.74,6.72s6.77-2.95,6.77-6.72v-9.91Z"></path>
      <path class="cls-1" d="M127.87,54.37h-5.83c-.27,0-.49-.22-.49-.49v-13.59c0-.54-.44-.98-.98-.98h-.64c-.54,0-.98.44-.98.98v15.46c.02.52.44.94.97.95h7.94c.48,0,.87-.39.87-.87v-.57c0-.48-.38-.87-.86-.88Z"></path>
      <path class="cls-1" d="M72.7,49.68s0-.02,0-.02h0c2.15-.87,3.65-2.75,3.65-5.03,0-2.95-2.43-5.31-5.41-5.31h-6.23c-.54,0-.98.44-.98.98v.46h0v14.94c0,.54.44.98.98.98h.59c.54,0,.98-.44.98-.98v-5.32c0-.27.22-.49.49-.5h3.07c.11,0,.21.05.25.14l3.19,6.16c.26.47.85.63,1.32.38l.53-.3c.48-.27.65-.87.39-1.35l-2.84-5.23ZM70.76,47.75h-3.92c-.27,0-.48-.21-.49-.48v-4.75h0v-.3c0-.27.21-.49.48-.5h3.86c1.64,0,3.11,1.34,3.09,2.98-.02,1.7-1.42,3.05-3.02,3.05h0Z"></path>
      <path class="cls-1" d="M111.86,54.37h-6.91c-.27,0-.49-.21-.49-.48v-.39h0v-3.95c0-.27.22-.49.49-.5h5.73c.48,0,.88-.39.88-.88v-.58c0-.48-.39-.88-.88-.88h-5.72c-.27,0-.49-.22-.5-.49v-3.77h0v-.3c0-.27.22-.49.49-.5h6.9c.48,0,.88-.4.88-.89v-.58c0-.48-.39-.88-.88-.88h-8.99c-.53.02-.95.44-.95.95v15.45c0,.53.43.96.96.96h9c.48,0,.87-.39.87-.87v-.57c0-.47-.39-.85-.87-.86Z"></path>
      <path class="cls-1" d="M177.65,54.34h-6.91c-.27,0-.49-.21-.49-.48v-.39h0v-3.95c0-.27.22-.5.5-.5h5.72c.48,0,.88-.39.88-.88v-.58c0-.48-.39-.88-.88-.88h-5.72c-.27,0-.49-.22-.5-.49v-3.77h0v-.3c0-.27.22-.5.5-.5h6.9c.48,0,.88-.4.88-.89v-.58c0-.48-.39-.88-.88-.88h-8.99c-.53.02-.95.44-.95.95v15.45c0,.53.43.96.96.96h8.99c.48,0,.87-.39.87-.87v-.57c0-.48-.39-.87-.87-.87Z"></path>
      <path class="cls-1" d="M148.03,55.17l-7.18-15.82c-.09-.15-.25-.25-.42-.27h-.25c-.17.02-.33.12-.42.27l-7.2,15.81c-.21.46,0,1,.46,1.21l.54.25c.46.21,1,0,1.21-.46l1.42-3.15c.04-.06.12-.09.18-.1h7.78c.1,0,.19.06.23.15l1.42,3.11c.21.46.75.67,1.21.45l.54-.25c.47-.2.67-.74.46-1.2ZM143,50.78h-5.42c-.14,0-.25-.12-.25-.25,0-.03,0-.07.02-.11l2.84-6.38s.05-.05.08-.06h0s.07.02.08.06h0l2.86,6.38c.06.13,0,.28-.13.34-.02.02-.06.02-.09.02h0Z"></path>
      <path class="cls-1" d="M162.56,39.93l-.58-.44c-.43-.31-1.03-.22-1.35.2l-4.31,5.99c-.06.07-.16.08-.22.03,0,0-.02-.02-.02-.02-.62-.85-4.34-5.99-4.34-5.99-.32-.43-.92-.52-1.35-.2l-.58.44c-.38.33-.34.84-.07,1.22l5.15,7.17v7.37c0,.53.43.97.96.97h.63c.53,0,.97-.44.97-.97v-7.4s5.19-7.16,5.19-7.16c.26-.37.3-.88-.07-1.21Z"></path>
      <path class="cls-1" d="M192.73,49.64s0-.02,0-.02h0c2.15-.87,3.65-2.75,3.65-5.03,0-2.95-2.43-5.31-5.41-5.31h-6.24c-.54,0-.98.44-.98.98v15.39c0,.54.44.98.98.98h.59c.54,0,.98-.44.98-.98v-5.32c0-.27.22-.49.49-.5h3.07c.11,0,.21.05.25.14l3.19,6.16c.26.47.85.63,1.32.38l.54-.3c.48-.27.65-.87.39-1.35l-2.84-5.22ZM190.78,47.71h-3.92c-.27,0-.48-.22-.49-.48v-5.05c0-.27.21-.49.48-.5h3.86c1.64,0,3.11,1.34,3.09,2.98-.02,1.7-1.42,3.05-3.02,3.05Z"></path>
      <path class="cls-1" d="M2.58,57.71l14.93,8.51c1.27.76,1.84.22,2.36,0l15.84-9.09c.57-.36.95-.67.95-1.3s-.48-.95-.76-1.13l-4.27-2.84,4.05-2.35c.66-.33,1.36-1.07,1.36-2v-6.26c0-1.63-.93-2.14-1.38-2.38-.03-.02-15.53-8.97-15.53-8.97-1.35-.89-2.45-.3-2.9,0L1.63,38.93c-.7.48-.92.99-.92,1.5,0,.78.81,1.37.92,1.45l4.05,2.41-4.3,2.61c-.67.41-.72,1.18-.72,1.18h0c-.05.35-.05,6.11-.05,6.11,0,1.51.14,2.5,1.96,3.52ZM33.86,55.94l-15.18,8.5-14.68-8.27,4.6-2.64,9.53,5.44c.29.21.81.19,1.08.04l10.27-5.94,4.38,2.87ZM35.15,46.87l-4.1-2.52,4.08-2.43.02,4.96ZM19.8,32.22l13.98,8.15-4.59,2.8-9.4-5.7v-5.25ZM18.67,39.26l8.48,5.14-8.48,4.89h0l-8.67-5.01,8.68-5.03h0ZM3.31,40.43l14.26-8.24v5.28l-9.9,5.59-4.36-2.63ZM7.81,45.56l10.3,5.94c.34.19.75.19,1.08,0l9.9-5.93,4.47,2.71-14.9,8.51-15.16-8.74,4.31-2.51ZM2.63,50.05l3.99,2.28-3.99,2.31v-4.59Z"></path>
    </g>
  </g>
</svg>
